<?xml version="1.0" standalone="no"?>
<!DOCTYPE svg PUBLIC "-//W3C//DTD SVG 20010904//EN"
 "http://www.w3.org/TR/2001/REC-SVG-20010904/DTD/svg10.dtd">
<svg version="1.0" xmlns="http://www.w3.org/2000/svg"
 width="512.000000pt" height="512.000000pt" viewBox="0 0 512.000000 512.000000"
 preserveAspectRatio="xMidYMid meet">
<metadata>
Created by potrace 1.14, written by Peter Selinger 2001-2017
</metadata>
<g transform="translate(0.000000,512.000000) scale(0.100000,-0.100000)"
fill="#000000" stroke="none">
<path d="M0 2560 l0 -2560 2560 0 2560 0 0 2560 0 2560 -2560 0 -2560 0 0
-2560z m1020 500 l0 -70 -70 0 -70 0 0 -435 0 -435 70 0 70 0 0 -70 0 -70
-182 2 -183 3 -3 560 c-1 308 0 566 3 573 3 9 50 12 185 12 l180 0 0 -70z
m2190 -330 l0 -400 405 0 405 0 0 -135 0 -135 -590 0 -590 0 0 535 0 535 185
0 185 0 0 -400z m1260 -175 l0 -575 -182 2 -183 3 -3 68 -3 67 71 0 70 0 0
435 0 435 -70 0 -70 0 0 63 c0 35 3 67 7 70 3 4 87 7 185 7 l178 0 0 -575z
m-2005 44 c154 -286 282 -525 283 -530 2 -5 -70 -9 -177 -9 l-181 0 -47 95
-48 95 -385 0 -385 0 -48 -95 -47 -95 -180 0 c-99 0 -180 2 -180 6 0 3 127
241 282 530 l281 524 276 0 276 0 280 -521z"/>
<path d="M1756 2696 c-53 -102 -96 -187 -96 -190 0 -3 113 -6 250 -6 138 0
250 2 250 4 0 2 -43 88 -96 190 l-96 186 -58 0 -58 0 -96 -184z"/>
</g>
</svg>
